<?xml version="1.0" standalone="no"?>
<!DOCTYPE svg PUBLIC "-//W3C//DTD SVG 20010904//EN"
 "http://www.w3.org/TR/2001/REC-SVG-20010904/DTD/svg10.dtd">
<svg version="1.0" xmlns="http://www.w3.org/2000/svg"
 width="145.000000pt" height="139.000000pt" viewBox="0 0 145.000000 139.000000"
 preserveAspectRatio="xMidYMid meet">

<g transform="translate(0.000000,139.000000) scale(0.100000,-0.100000)"
fill="#000000" stroke="none">
<path d="M0 695 l0 -695 725 0 725 0 0 695 0 695 -725 0 -725 0 0 -695z m462
477 c428 -246 808 -468 808 -472 0 -3 -109 -68 -243 -144 -133 -77 -342 -197
-464 -268 -122 -70 -224 -128 -227 -128 -3 0 -6 243 -6 540 0 297 3 540 8 540
4 -1 60 -31 124 -68z"/>
<path d="M629 618 c-29 -46 -85 -132 -124 -193 -39 -60 -75 -116 -80 -124 -9
-16 -15 -19 410 226 l299 173 -226 0 -226 0 -53 -82z"/>
</g>
</svg>
