<?xml version="1.0" standalone="no"?>
<!DOCTYPE svg PUBLIC "-//W3C//DTD SVG 20010904//EN"
 "http://www.w3.org/TR/2001/REC-SVG-20010904/DTD/svg10.dtd">
<svg version="1.0" xmlns="http://www.w3.org/2000/svg"
 width="363.000000pt" height="297.000000pt" viewBox="0 0 363.000000 297.000000"
 preserveAspectRatio="xMidYMid meet">

<g transform="translate(0.000000,297.000000) scale(0.100000,-0.100000)"
fill="#000000" stroke="none">
<path d="M1280 2683 c-2 -366 1 -1398 4 -1401 4 -3 1211 692 1229 708 7 6
-1210 720 -1227 720 -3 0 -6 -12 -6 -27z m1044 -693 c-13 -13 -926 -541 -930
-538 -1 2 77 126 173 276 l176 273 295 -1 c172 -1 291 -5 286 -10z"/>
<path d="M2210 833 c0 -104 5 -208 11 -232 24 -105 120 -180 241 -189 l58 -4
0 71 0 71 -40 0 c-52 0 -98 24 -110 56 -6 14 -10 52 -10 85 l0 59 65 0 65 0 0
65 0 64 -62 3 -63 3 -3 68 -3 67 -74 0 -75 0 0 -187z"/>
<path d="M2840 835 c0 -208 9 -267 50 -323 37 -52 123 -95 202 -100 l58 -4 0
71 0 71 -51 0 c-43 0 -55 5 -80 29 -27 27 -29 35 -29 100 l0 71 65 0 65 0 0
65 0 65 -65 0 -65 0 0 70 0 70 -75 0 -75 0 0 -185z"/>
<path d="M650 715 l0 -295 70 0 70 0 0 100 0 100 93 0 c76 0 100 4 137 23 65
33 102 85 108 151 6 71 -11 117 -58 160 -53 48 -91 56 -267 56 l-153 0 0 -295z
m319 141 c12 -11 21 -29 21 -41 0 -41 -35 -60 -121 -64 l-79 -3 0 67 0 67 79
-3 c60 -3 84 -9 100 -23z"/>
<path d="M2600 715 l0 -295 75 0 75 0 0 295 0 295 -75 0 -75 0 0 -295z"/>
<path d="M1304 876 c-221 -103 -156 -438 91 -463 68 -7 154 18 201 59 57 51
79 101 79 188 0 81 -20 134 -67 177 -70 66 -209 83 -304 39z m176 -121 c37
-19 51 -45 52 -94 1 -75 -34 -110 -108 -111 -42 0 -56 5 -76 25 -54 54 -39
159 27 185 32 14 73 11 105 -5z"/>
<path d="M1824 881 c-74 -34 -108 -104 -84 -175 17 -52 65 -84 151 -102 99
-20 133 -34 119 -48 -14 -14 -192 -12 -244 2 l-36 10 0 -68 0 -68 72 -12 c129
-22 259 -1 315 52 12 11 27 42 33 69 24 97 -35 154 -188 180 -82 15 -98 22
-87 39 6 10 34 11 109 7 56 -3 111 -9 124 -13 21 -6 22 -4 22 63 l0 70 -46 7
c-94 12 -217 7 -260 -13z"/>
</g>
</svg>
